# xmcd CD database file generated by OrangeCD 4.2
#
# Track frame offsets:
#	150
#	17290
#	35582
#	48337
#	62930
#	75840
#	93217
#	107897
#	124830
#	136905
#	153685
#
# Disc length: 2327 seconds
#
# Revision: 3
# Processed by: cddbd v1.4PL0 Copyright (c) Steve Scherf et al.
# Submitted via: OrangeCD 4.2
#
DISCID=8409150b
DTITLE=Big Walter Horton - Big Walter Horton With Carey Bell
DYEAR=1900
DGENRE=Blues
TTITLE0=Have A Good Time
TTITLE1=Christine
TTITLE2=Lovin' My Baby
TTITLE3=Little Boy Blue
TTITLE4=Can't Hold Out Much Longer
TTITLE5=Under The Sun
TTITLE6=Tell Me Baby
TTITLE7=Have Mercy
TTITLE8=That Ain't It
TTITLE9=Temptation Blues
TTITLE10=Trouble In Mind
EXTD=
EXTT0=
EXTT1=
EXTT2=
EXTT3=
EXTT4=
EXTT5=
EXTT6=
EXTT7=
EXTT8=
EXTT9=
EXTT10=
PLAYORDER=
